<svg width="85" height="42" fill="none" xmlns="http://www.w3.org/2000/svg"><path d="M13.146 13.103h-.003c-2.398 0-4.342 1.727-4.342 3.859v.002c0 2.131 1.944 3.859 4.342 3.859h.003c2.398 0 4.342-1.728 4.342-3.859v-.002c0-2.132-1.944-3.86-4.342-3.86zM45.195 11.87c-.007-2.96-1.333-5.798-3.688-7.891C39.153 1.886 35.96.707 32.63.7c-3.332.005-6.526 1.184-8.882 3.277-2.356 2.094-3.683 4.931-3.69 7.892v16.323s25.134-2.488 25.137-16.32v-.003zM0 33.55c.006 2.06.93 4.033 2.568 5.49 1.638 1.456 3.859 2.277 6.176 2.283 2.317-.006 4.537-.827 6.176-2.283 1.638-1.456 2.562-3.429 2.568-5.488V22.194S0 23.927 0 33.55zm8.744 2.034c-.453 0-.895-.119-1.272-.343a2.107 2.107 0 01-.843-.913 1.825 1.825 0 01-.13-1.175c.088-.395.306-.758.626-1.042a2.39 2.39 0 011.172-.557 2.558 2.558 0 011.323.115c.419.154.777.415 1.028.75.252.335.386.728.386 1.13.001.268-.057.534-.172.782a2.036 2.036 0 01-.496.662c-.212.19-.465.34-.744.443a2.54 2.54 0 01-.878.156v-.008zM26.318 34.323h-1.79v1.884h-.563V31.94h2.643v.463h-2.08v1.46h1.79v.46zm4.245-.111c0 .418-.07.783-.21 1.095a1.6 1.6 0 01-.598.712 1.644 1.644 0 01-.903.247c-.336 0-.634-.082-.893-.247a1.657 1.657 0 01-.607-.706 2.559 2.559 0 01-.22-1.063v-.308c0-.41.072-.772.214-1.087.143-.314.344-.554.604-.72.262-.168.56-.252.896-.252.342 0 .643.083.903.249.261.164.463.403.603.718.14.312.211.676.211 1.092v.27zm-.56-.276c0-.505-.101-.893-.304-1.163-.203-.271-.487-.407-.853-.407a.997.997 0 00-.84.407c-.204.27-.308.645-.314 1.125v.314c0 .49.103.876.308 1.157.207.28.49.419.852.419.363 0 .645-.132.844-.395.2-.266.302-.646.308-1.14v-.317zm2.66.37c-.482-.14-.833-.31-1.054-.51a.983.983 0 01-.328-.75c0-.336.134-.614.401-.832.27-.221.62-.331 1.05-.331.292 0 .553.056.781.17.23.113.409.27.534.468.127.2.19.417.19.654h-.565c0-.258-.082-.46-.246-.607-.165-.148-.396-.222-.695-.222-.277 0-.494.061-.65.184a.608.608 0 00-.232.507c0 .174.073.321.22.442.148.12.4.229.753.328.355.1.633.21.832.331.201.12.35.26.445.42.098.16.147.348.147.565a1 1 0 01-.404.832c-.27.207-.63.31-1.082.31a2.02 2.02 0 01-.82-.166 1.401 1.401 0 01-.589-.463 1.131 1.131 0 01-.205-.665h.566a.74.74 0 00.284.612c.191.148.446.223.764.223.297 0 .525-.061.683-.182a.59.59 0 00.237-.495.575.575 0 00-.22-.484c-.146-.115-.412-.228-.796-.34zm5.254-1.902h-1.371v3.803h-.56v-3.803h-1.368v-.463h3.299v.463zm3.044 1.831h-1.849v1.512h2.148v.46h-2.71V31.94h2.68v.463h-2.118v1.371h1.849v.46zm2.563.246h-1.002v1.726h-.565V31.94h1.412c.48 0 .85.11 1.107.328.26.22.39.538.39.956 0 .265-.072.497-.217.694a1.277 1.277 0 01-.598.442l1.002 1.81v.036h-.603l-.926-1.726zm-1.002-.46h.864c.28 0 .501-.072.665-.216a.73.73 0 00.25-.58c0-.264-.08-.466-.238-.607-.156-.14-.383-.212-.68-.214h-.86v1.617zm5.186.516v1.67h-.563V31.94h1.573c.467 0 .832.12 1.096.358.266.238.399.553.399.946 0 .414-.13.733-.39.958-.258.223-.628.334-1.11.334h-1.005zm0-.46h1.01c.301 0 .532-.07.692-.21.16-.143.24-.349.24-.616 0-.254-.08-.457-.24-.61-.16-.152-.38-.231-.66-.237h-1.042v1.673zm5.634.158h-1.85v1.512h2.148v.46h-2.71V31.94h2.681v.463h-2.118v1.371h1.849v.46zm4.004-1.83h-1.37v3.802h-.56v-3.803h-1.368v-.463h3.298v.463zm3.044 1.83h-1.848v1.512h2.147v.46h-2.71V31.94h2.68v.463h-2.117v1.371h1.848v.46zm2.564.246h-1.002v1.726h-.566V31.94h1.412c.481 0 .85.11 1.108.328.26.22.39.538.39.956 0 .265-.073.497-.217.694a1.276 1.276 0 01-.598.442l1.002 1.81v.036h-.603l-.926-1.726zm-1.002-.46h.864c.28 0 .501-.072.665-.216a.73.73 0 00.25-.58c0-.264-.08-.466-.238-.607-.156-.14-.383-.212-.68-.214h-.861v1.617zm4.391.285c-.482-.14-.834-.31-1.054-.51a.983.983 0 01-.328-.75c0-.336.133-.614.401-.832.27-.221.62-.331 1.049-.331.293 0 .553.056.782.17.23.113.408.27.533.468.127.2.19.417.19.654h-.565c0-.258-.082-.46-.246-.607-.164-.148-.395-.222-.694-.222-.278 0-.494.061-.65.184a.608.608 0 00-.232.507c0 .174.073.321.22.442.148.12.4.229.753.328.355.1.633.21.832.331.2.12.35.26.445.42.098.16.147.348.147.565a1 1 0 01-.405.832c-.27.207-.63.31-1.08.31a2.02 2.02 0 01-.821-.166 1.402 1.402 0 01-.59-.463 1.132 1.132 0 01-.204-.665h.565a.74.74 0 00.284.612c.192.148.447.223.765.223.297 0 .525-.061.683-.182a.59.59 0 00.237-.495.575.575 0 00-.22-.484c-.146-.115-.412-.228-.797-.34z" fill="#AFB1B8"/></svg>